<svg xmlns="http://www.w3.org/2000/svg" version="1.1" xmlns:xlink="http://www.w3.org/1999/xlink" xmlns:svgjs="http://svgjs.dev/svgjs" viewBox="0 0 1920 1080" className="overflow-hidden rounded-md drop-shadow-lg transition duration-300" style="overflow: hidden; height: 85vh;"><rect width="1920" height="1080" fill="#00272c"/><g clip-path="url(&quot;#SvgjsClipPath1352&quot;)"><g transform="matrix(-0.5398922972037741,1.015389731787766,-1.015389731787766,-0.5398922972037741,1992.2099900310163,-120.55121439305492)"><path d="M0,-1080C13.941503597197467,-999.2839223460692,71.21565323283629,-737.5546968199396,83.6490215831848,-595.7035340764154C96.08238993353332,-453.85237133289115,84.38465299207112,-365.03232145383964,74.6002101020911,-228.89302353885475C64.81576721211107,-92.75372562386985,44.5766508454402,86.85098897208445,24.94236424330468,221.1322534134939C5.3080776411691595,355.4135178549034,-54.78715235299237,455.52954879490073,-43.205509510722045,576.794563109602C-31.62386666845172,698.0595774243033,83.24728821307004,818.1931888591167,94.43222129692663,948.7223393017015C105.61715438078322,1079.2514897442861,31.45751088556761,1237.2795979612704,23.90408899241747,1359.9694657651105C16.35066709926733,1482.6593335689506,53.09570477009537,1551.5231237522603,49.11168993802579,1684.8615461247418C45.127675105956214,1818.1999684972234,8.185281656337631,2080.810257687457,0,2160L 1920 2160 L 1920 -1080 Z" fill="url(&quot;#SvgjsLinearGradient1350&quot;)"/><path d="M960,-1080C970.1519212729328,-984.1997485959499,1015.4942988261557,-695.2783263409012,1020.9115276375966,-505.19849157569945C1026.3287564490374,-315.11865681049767,1017.8572999163669,-114.45441349787228,992.5033728686452,60.479008591211C967.1494458209236,235.41243068029428,868.7508753210757,367.0234726498152,868.787965351267,544.4020409588003C868.8250553814582,721.7806092677854,992.4649256453445,960.3143959886561,992.7259130497929,1124.7504184451218C992.9869004542413,1289.1864409015875,875.8082086195899,1358.4765787717818,870.3538897779578,1531.0181756975949C864.8995709363256,1703.559772623408,945.0589816296597,2055.1696959495994,960,2160L 1920 2160 L 1920 -1080 Z" fill="url(&quot;#SvgjsLinearGradient1351&quot;)"/></g></g><defs><linearGradient x1="0.1" y1="0" x2="0" y2="1" id="SvgjsLinearGradient1350"><stop stop-color="#00272c" offset="0"/><stop stop-color="#002c2a" offset="0"/></linearGradient><linearGradient x1="0.1" y1="0" x2="0" y2="1" id="SvgjsLinearGradient1351"><stop stop-color="#10e4ff" offset="0"/><stop stop-color="#10fff2" offset="0.5"/></linearGradient><clipPath id="SvgjsClipPath1352"><rect width="1920" height="1080"/></clipPath></defs></svg>